<svg width="48" height="48" viewBox="0 0 48 48" fill="none" xmlns="http://www.w3.org/2000/svg">
<mask id="mask0_863_2300" style="mask-type:alpha" maskUnits="userSpaceOnUse" x="0" y="0" width="48" height="48">
<rect width="48" height="48" fill="#D9D9D9"/>
</mask>
<g mask="url(#mask0_863_2300)">
<path d="M9 42C8.175 42 7.46883 41.7062 6.8815 41.1185C6.29383 40.5312 6 39.825 6 39V9C6 8.175 6.29383 7.46867 6.8815 6.881C7.46883 6.29367 8.175 6 9 6H39C39.825 6 40.5313 6.29367 41.119 6.881C41.7063 7.46867 42 8.175 42 9V25.45C41.5333 25.1833 41.0417 24.9667 40.525 24.8C40.0083 24.6333 39.5 24.5 39 24.4V9H9V39H24.45C24.5833 39.5333 24.7337 40.0528 24.901 40.5585C25.0687 41.0642 25.2683 41.5447 25.5 42H9ZM9 39V9V24.4V24.2V39ZM14 34H24.55C24.6833 33.4667 24.8333 32.95 25 32.45C25.1667 31.95 25.3833 31.4667 25.65 31H14V34ZM14 25.5H31.2C31.6667 25.2667 32.1167 25.075 32.55 24.925C32.9833 24.775 33.4667 24.6333 34 24.5V22.5H14V25.5ZM14 17H34V14H14V17Z" fill="#1C1B1F"/>
<mask id="mask1_863_2300" style="mask-type:alpha" maskUnits="userSpaceOnUse" x="24" y="26" width="22" height="22">
<rect x="24" y="26" width="22" height="22" fill="#D9D9D9"/>
</mask>
<g mask="url(#mask1_863_2300)">
<path d="M32.8687 38.5583L33.6708 35.9458L31.5625 34.2499H34.175L35 31.6833L35.825 34.2499H38.4375L36.3062 35.9458L37.1083 38.5583L35 36.9312L32.8687 38.5583ZM29.5 47.0833V40.002C28.9194 39.3603 28.4687 38.627 28.1479 37.802C27.8271 36.977 27.6667 36.0985 27.6667 35.1666C27.6667 33.1194 28.3771 31.3853 29.7979 29.9645C31.2187 28.5437 32.9528 27.8333 35 27.8333C37.0472 27.8333 38.7812 28.5437 40.2021 29.9645C41.6229 31.3853 42.3333 33.1194 42.3333 35.1666C42.3333 36.0985 42.1729 36.977 41.8521 37.802C41.5312 38.627 41.0805 39.3603 40.5 40.002V47.0833L35 45.2499L29.5 47.0833ZM35 40.6666C36.5278 40.6666 37.8264 40.1319 38.8958 39.0624C39.9653 37.993 40.5 36.6944 40.5 35.1666C40.5 33.6388 39.9653 32.3402 38.8958 31.2708C37.8264 30.2013 36.5278 29.6666 35 29.6666C33.4722 29.6666 32.1736 30.2013 31.1042 31.2708C30.0347 32.3402 29.5 33.6388 29.5 35.1666C29.5 36.6944 30.0347 37.993 31.1042 39.0624C32.1736 40.1319 33.4722 40.6666 35 40.6666Z" fill="#1C1B1F"/>
</g>
</g>
</svg>
