<svg width="24" height="25" viewBox="0 0 24 25" fill="none" xmlns="http://www.w3.org/2000/svg">
<mask id="mask0_1337_1180" style="mask-type:alpha" maskUnits="userSpaceOnUse" x="0" y="0" width="24" height="25">
<rect y="0.333008" width="24" height="24" fill="#D9D9D9"/>
</mask>
<g mask="url(#mask0_1337_1180)">
<path d="M12 22.333C10.6167 22.333 9.31667 22.0705 8.1 21.5455C6.88333 21.0205 5.825 20.308 4.925 19.408C4.025 18.508 3.3125 17.4497 2.7875 16.233C2.2625 15.0163 2 13.7163 2 12.333H4C4 13.433 4.20833 14.4705 4.625 15.4455C5.04167 16.4205 5.6125 17.2705 6.3375 17.9955C7.0625 18.7205 7.9125 19.2955 8.8875 19.7205C9.8625 20.1455 10.9 20.358 12 20.358C14.2333 20.358 16.125 19.583 17.675 18.033C19.225 16.483 20 14.5913 20 12.358C20 10.1247 19.225 8.23301 17.675 6.68301C16.125 5.13301 14.2333 4.35801 12 4.35801C10.5167 4.35801 9.17083 4.72051 7.9625 5.44551C6.75417 6.17051 5.8 7.13301 5.1 8.33301H8V10.333H2V4.33301H4V6.33301C4.91667 5.11634 6.06667 4.14551 7.45 3.42051C8.83333 2.69551 10.35 2.33301 12 2.33301C13.3833 2.33301 14.6833 2.59551 15.9 3.12051C17.1167 3.64551 18.175 4.35801 19.075 5.25801C19.975 6.15801 20.6875 7.21634 21.2125 8.43301C21.7375 9.64967 22 10.9497 22 12.333C22 13.7163 21.7375 15.0163 21.2125 16.233C20.6875 17.4497 19.975 18.508 19.075 19.408C18.175 20.308 17.1167 21.0205 15.9 21.5455C14.6833 22.0705 13.3833 22.333 12 22.333Z" fill="#1F1B13"/>
<path d="M16 16H8V15.45C8 14.7167 8.36667 14.125 9.1 13.675C9.83333 13.225 10.8 13 12 13C13.2 13 14.1667 13.225 14.9 13.675C15.6333 14.125 16 14.7167 16 15.45V16Z" fill="#1F1B13"/>
<path d="M13.4125 11.4125C13.0208 11.8042 12.55 12 12 12C11.45 12 10.9792 11.8042 10.5875 11.4125C10.1958 11.0208 10 10.55 10 10C10 9.45 10.1958 8.97917 10.5875 8.5875C10.9792 8.19583 11.45 8 12 8C12.55 8 13.0208 8.19583 13.4125 8.5875C13.8042 8.97917 14 9.45 14 10C14 10.55 13.8042 11.0208 13.4125 11.4125Z" fill="#1F1B13"/>
</g>
</svg>
