<svg width="20" height="26" viewBox="0 0 20 26" fill="none" xmlns="http://www.w3.org/2000/svg">
<path d="M3.87484 25.6667C2.99984 25.6667 2.24636 25.3702 1.61442 24.7771C0.982476 24.184 0.666504 23.45 0.666504 22.575V6.30002C0.666504 5.56113 0.894976 4.90002 1.35192 4.31668C1.80887 3.73335 2.40678 3.36391 3.14567 3.20835L14.6665 0.93335V19.6L3.61234 21.8167C3.43734 21.8556 3.2915 21.9479 3.17484 22.0938C3.05817 22.2396 2.99984 22.4 2.99984 22.575C2.99984 22.7889 3.08734 22.9688 3.26234 23.1146C3.43734 23.2604 3.6415 23.3333 3.87484 23.3333H16.9998V4.66668H19.3332V25.6667H3.87484ZM6.49984 18.8708L12.3332 17.7333V3.79168L6.49984 4.92918V18.8708ZM4.1665 19.3375V5.39585L3.729 5.48335C3.51512 5.52224 3.34011 5.6146 3.204 5.76043C3.06789 5.90627 2.99984 6.08613 2.99984 6.30002V19.6292C3.09706 19.5903 3.19914 19.5563 3.30609 19.5271C3.41303 19.4979 3.51512 19.4736 3.61234 19.4542L4.1665 19.3375Z" fill="#635E57"/>
</svg>
