<svg width="24" height="24" viewBox="0 0 24 24" fill="none" xmlns="http://www.w3.org/2000/svg">
<mask id="mask0_6569_1221" style="mask-type:alpha" maskUnits="userSpaceOnUse" x="0" y="0" width="24" height="24">
<rect width="24" height="24" fill="#D9D9D9"/>
</mask>
<g mask="url(#mask0_6569_1221)">
<path d="M4 7V17H11L9 19H2V5H22V8H20V7H4Z" fill="#1F1B13"/>
<mask id="mask1_6569_1221" style="mask-type:alpha" maskUnits="userSpaceOnUse" x="13" y="14" width="10" height="10">
<rect x="13" y="14.7144" width="9.28558" height="9.28562" fill="#D9D9D9"/>
</mask>
<g mask="url(#mask1_6569_1221)">
<path d="M17.6428 23.2858C17.6428 22.1905 18.0237 21.262 18.7856 20.5001C19.5475 19.7382 20.476 19.3572 21.5713 19.3572C20.476 19.3572 19.5475 18.9763 18.7856 18.2144C18.0237 17.4525 17.6428 16.5239 17.6428 15.4287C17.6428 16.5239 17.2618 17.4525 16.4999 18.2144C15.738 18.9763 14.8095 19.3572 13.7142 19.3572C14.8095 19.3572 15.738 19.7382 16.4999 20.5001C17.2618 21.262 17.6428 22.1905 17.6428 23.2858Z" fill="#1F1B13"/>
</g>
<mask id="mask2_6569_1221" style="mask-type:alpha" maskUnits="userSpaceOnUse" x="16" y="11" width="9" height="8">
<rect x="16.7142" y="11" width="7.42846" height="7.4285" fill="#D9D9D9"/>
</mask>
<g mask="url(#mask2_6569_1221)">
<path d="M20.4285 17.8568C20.4285 16.9806 20.7332 16.2377 21.3428 15.6282C21.9523 15.0187 22.6951 14.7139 23.5713 14.7139C22.6951 14.7139 21.9523 14.4092 21.3428 13.7997C20.7332 13.1901 20.4285 12.4473 20.4285 11.5711C20.4285 12.4473 20.1237 13.1901 19.5142 13.7997C18.9047 14.4092 18.1619 14.7139 17.2857 14.7139C18.1619 14.7139 18.9047 15.0187 19.5142 15.6282C20.1237 16.2377 20.4285 16.9806 20.4285 17.8568Z" fill="#1F1B13"/>
</g>
<path d="M9.992 14.008H7.896L7.56 15H6.128L8.16 9.384H9.744L11.776 15H10.328L9.992 14.008ZM9.64 12.952L8.944 10.896L8.256 12.952H9.64ZM14.2624 9.384V15H12.8944V9.384H14.2624Z" fill="#1F1B13"/>
</g>
</svg>
